<svg xmlns="http://www.w3.org/2000/svg" data-name="Layer 1" viewBox="0 0 512 640" x="0px" y="0px"><title>Business Profile</title><path d="M352,85a6,6,0,0,0-6-6H56a6,6,0,0,0-6,6v30a6,6,0,0,0,6,6H346a6,6,0,0,0,6-6ZM62,91H340v18H62Z"/><path d="M482,76a26,26,0,0,0-26-26H56A26,26,0,0,0,30,76V437a26,26,0,0,0,26,26H456a26,26,0,0,0,26-26ZM456.2,450H55.8A13.484,13.484,0,0,1,42,436.43V152H470V436.43A13.484,13.484,0,0,1,456.2,450ZM55.8,62H456.2A13.484,13.484,0,0,1,470,75.57V140H42V75.57A13.484,13.484,0,0,1,55.8,62Z"/><path d="M462,85a6,6,0,0,0-6-6H426a6,6,0,0,0-6,6v30a6,6,0,0,0,6,6h30a6,6,0,0,0,6-6Zm-30,6h18v18H432Z"/><path d="M410,85a6,6,0,0,0-6-6H374a6,6,0,0,0-6,6v30a6,6,0,0,0,6,6h30a6,6,0,0,0,6-6Zm-30,6h18v18H380Z"/><path d="M203.958,331H192v-.843c4-2.845,7.327-6.194,11.325-10.187,10.64-10.628,18.433-21.831,23.237-33.3,6.74-16.09,7.028-33.39.843-48.713-4.673-11.579-13.285-18.413-22.79-18.55a47.447,47.447,0,0,0-56.692-24.851c-18.925,5.469-34.548,18.171-42.859,34.847a66.057,66.057,0,0,0-6.733,32.136C99.483,289.44,115,315.407,138,328.77V331H126.128A41.13,41.13,0,0,0,85,372.111v33.362c0,3.314,2.644,5.527,5.957,5.527H239.128c3.314,0,5.872-2.213,5.872-5.527V372.111A41.057,41.057,0,0,0,203.958,331ZM150,336.937h0v-8.649A49.529,49.529,0,0,0,164.912,331h.365c5.083,0,9.723-1.233,14.723-2.764v8.7h0v.668a15,15,0,0,1-30,0v-.668Zm51-72.062v17.242c0,20-16.069,36.4-35.777,36.541A35.958,35.958,0,0,1,129,282.645v-3.092A87,87,0,0,0,186.753,239.2a20.6,20.6,0,0,1,4.347,2.235,22.589,22.589,0,0,1,9.938,19.3Zm-85.2-30.117c6.818-13.681,19.739-24.132,35.45-28.672a35.7,35.7,0,0,1,26.537,2.186,37.009,37.009,0,0,1,17.148,18.8l.217.65a6,6,0,0,0,7.077,3.94c1.473-.349,9.077-1.473,14.027,10.791,4.993,12.373,4.709,26.431-.8,39.585-.854,2.04-1.795,4.075-2.876,6.1a49.036,49.036,0,0,0,.419-6.021V264.963l.024-4.061a34.537,34.537,0,0,0-15.286-29.464,31.408,31.408,0,0,0-13.152-5.072,6.008,6.008,0,0,0-6.091,3.067c-18.866,34.529-52.044,38.527-54.806,38.8A7.008,7.008,0,0,0,117,275.267v7.378a48.7,48.7,0,0,0,.387,6.435,71.8,71.8,0,0,1-7.054-28.035A54.022,54.022,0,0,1,115.8,234.758ZM233,399H97V372.111A29.117,29.117,0,0,1,126.128,343h12.379a26.942,26.942,0,0,0,52.815,0h12.636A29.044,29.044,0,0,1,233,372.111Z"/><path d="M279,248h82a6,6,0,0,0,0-12H279a6,6,0,0,0,0,12Z"/><path d="M421,266H279a6,6,0,0,0,0,12H421a6,6,0,0,0,0-12Z"/><path d="M421,296H279a6,6,0,0,0,0,12H421a6,6,0,0,0,0-12Z"/><path d="M421,326H279a6,6,0,0,0,0,12H421a6,6,0,0,0,0-12Z"/><path d="M421,356H279a6,6,0,0,0,0,12H421a6,6,0,0,0,0-12Z"/><text x="0" y="527" fill="#000000" font-size="5px" font-weight="bold" font-family="'Helvetica Neue', Helvetica, Arial-Unicode, Arial, Sans-serif">Created by Kiran Shastry</text><text x="0" y="532" fill="#000000" font-size="5px" font-weight="bold" font-family="'Helvetica Neue', Helvetica, Arial-Unicode, Arial, Sans-serif">from the Noun Project</text></svg>